<svg viewBox="0 0 690 148" xmlns="http://www.w3.org/2000/svg" font-family="Georgia,serif">
<defs><marker id="ar" markerWidth="8" markerHeight="8" refX="6" refY="3" orient="auto"><path d="M0,0 L6,3 L0,6 Z" fill="#9a9a9a"/></marker></defs>
<rect x="114.6" y="6" width="12" height="12" rx="2" fill="#EB5757" stroke="#EB5757" stroke-width="1"/>
<text x="131.6" y="16" font-size="12" fill="#555">query</text>
<rect x="183.6" y="6" width="12" height="12" rx="2" fill="#1C6188" stroke="#1C6188" stroke-width="1"/>
<text x="200.6" y="16" font-size="12" fill="#555">running state &#931;</text>
<rect x="348.6" y="6" width="12" height="12" rx="2" fill="#2D9CDB" stroke="#2D9CDB" stroke-width="1"/>
<text x="365.6" y="16" font-size="12" fill="#555">current step</text>
<rect x="462.40000000000003" y="6" width="12" height="12" rx="2" fill="#A0D2EF" stroke="#A0D2EF" stroke-width="1"/>
<text x="479.40000000000003" y="16" font-size="12" fill="#555">earlier context</text>
<g transform="translate(0,28)">
<rect x="0" y="0" width="20" height="20" rx="2" fill="#EB5757" stroke="#ffffff" stroke-width="1.3"/>
<rect x="0" y="20" width="20" height="20" rx="2" fill="#EB5757" stroke="#ffffff" stroke-width="1.3"/>
<rect x="0" y="40" width="20" height="20" rx="2" fill="#EB5757" stroke="#ffffff" stroke-width="1.3"/>
<rect x="0" y="60" width="20" height="20" rx="2" fill="#EB5757" stroke="#ffffff" stroke-width="1.3"/>
<rect x="0" y="80" width="20" height="20" rx="2" fill="#EB5757" stroke="#ffffff" stroke-width="1.3"/>
<rect x="0" y="100" width="20" height="20" rx="2" fill="#EB5757" stroke="#ffffff" stroke-width="1.3"/>
<text x="27.0" y="14.0" font-size="15" text-anchor="middle" fill="#9a9a9a">&#215;</text>
<rect x="44" y="0" width="20" height="20" rx="2" fill="#1C6188" stroke="#ffffff" stroke-width="1.3"/>
<text x="54.0" y="15.0" font-size="13" text-anchor="middle" fill="#fff">&#931;</text>
<line x1="86" y1="10.0" x2="68" y2="10.0" stroke="#9a9a9a" stroke-width="1.4" marker-end="url(#ar)"/>
<rect x="90" y="0" width="20" height="20" rx="2" fill="#2D9CDB" stroke="#ffffff" stroke-width="1.3"/>
<rect x="110" y="0" width="20" height="20" rx="2" fill="#F4F1EA" stroke="#ffffff" stroke-width="1.3"/>
<rect x="130" y="0" width="20" height="20" rx="2" fill="#F4F1EA" stroke="#ffffff" stroke-width="1.3"/>
<rect x="150" y="0" width="20" height="20" rx="2" fill="#F4F1EA" stroke="#ffffff" stroke-width="1.3"/>
<rect x="170" y="0" width="20" height="20" rx="2" fill="#F4F1EA" stroke="#ffffff" stroke-width="1.3"/>
<rect x="190" y="0" width="20" height="20" rx="2" fill="#F4F1EA" stroke="#ffffff" stroke-width="1.3"/>
<rect x="90" y="20" width="20" height="20" rx="2" fill="#F4F1EA" stroke="#ffffff" stroke-width="1.3"/>
<rect x="110" y="20" width="20" height="20" rx="2" fill="#F4F1EA" stroke="#ffffff" stroke-width="1.3"/>
<rect x="130" y="20" width="20" height="20" rx="2" fill="#F4F1EA" stroke="#ffffff" stroke-width="1.3"/>
<rect x="150" y="20" width="20" height="20" rx="2" fill="#F4F1EA" stroke="#ffffff" stroke-width="1.3"/>
<rect x="170" y="20" width="20" height="20" rx="2" fill="#F4F1EA" stroke="#ffffff" stroke-width="1.3"/>
<rect x="190" y="20" width="20" height="20" rx="2" fill="#F4F1EA" stroke="#ffffff" stroke-width="1.3"/>
<rect x="90" y="40" width="20" height="20" rx="2" fill="#F4F1EA" stroke="#ffffff" stroke-width="1.3"/>
<rect x="110" y="40" width="20" height="20" rx="2" fill="#F4F1EA" stroke="#ffffff" stroke-width="1.3"/>
<rect x="130" y="40" width="20" height="20" rx="2" fill="#F4F1EA" stroke="#ffffff" stroke-width="1.3"/>
<rect x="150" y="40" width="20" height="20" rx="2" fill="#F4F1EA" stroke="#ffffff" stroke-width="1.3"/>
<rect x="170" y="40" width="20" height="20" rx="2" fill="#F4F1EA" stroke="#ffffff" stroke-width="1.3"/>
<rect x="190" y="40" width="20" height="20" rx="2" fill="#F4F1EA" stroke="#ffffff" stroke-width="1.3"/>
<rect x="90" y="60" width="20" height="20" rx="2" fill="#F4F1EA" stroke="#ffffff" stroke-width="1.3"/>
<rect x="110" y="60" width="20" height="20" rx="2" fill="#F4F1EA" stroke="#ffffff" stroke-width="1.3"/>
<rect x="130" y="60" width="20" height="20" rx="2" fill="#F4F1EA" stroke="#ffffff" stroke-width="1.3"/>
<rect x="150" y="60" width="20" height="20" rx="2" fill="#F4F1EA" stroke="#ffffff" stroke-width="1.3"/>
<rect x="170" y="60" width="20" height="20" rx="2" fill="#F4F1EA" stroke="#ffffff" stroke-width="1.3"/>
<rect x="190" y="60" width="20" height="20" rx="2" fill="#F4F1EA" stroke="#ffffff" stroke-width="1.3"/>
<rect x="90" y="80" width="20" height="20" rx="2" fill="#F4F1EA" stroke="#ffffff" stroke-width="1.3"/>
<rect x="110" y="80" width="20" height="20" rx="2" fill="#F4F1EA" stroke="#ffffff" stroke-width="1.3"/>
<rect x="130" y="80" width="20" height="20" rx="2" fill="#F4F1EA" stroke="#ffffff" stroke-width="1.3"/>
<rect x="150" y="80" width="20" height="20" rx="2" fill="#F4F1EA" stroke="#ffffff" stroke-width="1.3"/>
<rect x="170" y="80" width="20" height="20" rx="2" fill="#F4F1EA" stroke="#ffffff" stroke-width="1.3"/>
<rect x="190" y="80" width="20" height="20" rx="2" fill="#F4F1EA" stroke="#ffffff" stroke-width="1.3"/>
<rect x="90" y="100" width="20" height="20" rx="2" fill="#F4F1EA" stroke="#ffffff" stroke-width="1.3"/>
<rect x="110" y="100" width="20" height="20" rx="2" fill="#F4F1EA" stroke="#ffffff" stroke-width="1.3"/>
<rect x="130" y="100" width="20" height="20" rx="2" fill="#F4F1EA" stroke="#ffffff" stroke-width="1.3"/>
<rect x="150" y="100" width="20" height="20" rx="2" fill="#F4F1EA" stroke="#ffffff" stroke-width="1.3"/>
<rect x="170" y="100" width="20" height="20" rx="2" fill="#F4F1EA" stroke="#ffffff" stroke-width="1.3"/>
<rect x="190" y="100" width="20" height="20" rx="2" fill="#F4F1EA" stroke="#ffffff" stroke-width="1.3"/>
</g>
<g transform="translate(240,28)">
<rect x="0" y="0" width="20" height="20" rx="2" fill="#EB5757" stroke="#ffffff" stroke-width="1.3"/>
<rect x="0" y="20" width="20" height="20" rx="2" fill="#EB5757" stroke="#ffffff" stroke-width="1.3"/>
<rect x="0" y="40" width="20" height="20" rx="2" fill="#EB5757" stroke="#ffffff" stroke-width="1.3"/>
<rect x="0" y="60" width="20" height="20" rx="2" fill="#EB5757" stroke="#ffffff" stroke-width="1.3"/>
<rect x="0" y="80" width="20" height="20" rx="2" fill="#EB5757" stroke="#ffffff" stroke-width="1.3"/>
<rect x="0" y="100" width="20" height="20" rx="2" fill="#EB5757" stroke="#ffffff" stroke-width="1.3"/>
<text x="27.0" y="54.0" font-size="15" text-anchor="middle" fill="#9a9a9a">&#215;</text>
<rect x="44" y="40" width="20" height="20" rx="2" fill="#1C6188" stroke="#ffffff" stroke-width="1.3"/>
<text x="54.0" y="55.0" font-size="13" text-anchor="middle" fill="#fff">&#931;</text>
<line x1="86" y1="50.0" x2="68" y2="50.0" stroke="#9a9a9a" stroke-width="1.4" marker-end="url(#ar)"/>
<rect x="90" y="0" width="20" height="20" rx="2" fill="#2D9CDB" stroke="#ffffff" stroke-width="1.3"/>
<rect x="110" y="0" width="20" height="20" rx="2" fill="#F4F1EA" stroke="#ffffff" stroke-width="1.3"/>
<rect x="130" y="0" width="20" height="20" rx="2" fill="#F4F1EA" stroke="#ffffff" stroke-width="1.3"/>
<rect x="150" y="0" width="20" height="20" rx="2" fill="#F4F1EA" stroke="#ffffff" stroke-width="1.3"/>
<rect x="170" y="0" width="20" height="20" rx="2" fill="#F4F1EA" stroke="#ffffff" stroke-width="1.3"/>
<rect x="190" y="0" width="20" height="20" rx="2" fill="#F4F1EA" stroke="#ffffff" stroke-width="1.3"/>
<rect x="90" y="20" width="20" height="20" rx="2" fill="#A0D2EF" stroke="#ffffff" stroke-width="1.3"/>
<rect x="110" y="20" width="20" height="20" rx="2" fill="#2D9CDB" stroke="#ffffff" stroke-width="1.3"/>
<rect x="130" y="20" width="20" height="20" rx="2" fill="#F4F1EA" stroke="#ffffff" stroke-width="1.3"/>
<rect x="150" y="20" width="20" height="20" rx="2" fill="#F4F1EA" stroke="#ffffff" stroke-width="1.3"/>
<rect x="170" y="20" width="20" height="20" rx="2" fill="#F4F1EA" stroke="#ffffff" stroke-width="1.3"/>
<rect x="190" y="20" width="20" height="20" rx="2" fill="#F4F1EA" stroke="#ffffff" stroke-width="1.3"/>
<rect x="90" y="40" width="20" height="20" rx="2" fill="#A0D2EF" stroke="#ffffff" stroke-width="1.3"/>
<rect x="110" y="40" width="20" height="20" rx="2" fill="#A0D2EF" stroke="#ffffff" stroke-width="1.3"/>
<rect x="130" y="40" width="20" height="20" rx="2" fill="#2D9CDB" stroke="#ffffff" stroke-width="1.3"/>
<rect x="150" y="40" width="20" height="20" rx="2" fill="#F4F1EA" stroke="#ffffff" stroke-width="1.3"/>
<rect x="170" y="40" width="20" height="20" rx="2" fill="#F4F1EA" stroke="#ffffff" stroke-width="1.3"/>
<rect x="190" y="40" width="20" height="20" rx="2" fill="#F4F1EA" stroke="#ffffff" stroke-width="1.3"/>
<rect x="90" y="60" width="20" height="20" rx="2" fill="#F4F1EA" stroke="#ffffff" stroke-width="1.3"/>
<rect x="110" y="60" width="20" height="20" rx="2" fill="#F4F1EA" stroke="#ffffff" stroke-width="1.3"/>
<rect x="130" y="60" width="20" height="20" rx="2" fill="#F4F1EA" stroke="#ffffff" stroke-width="1.3"/>
<rect x="150" y="60" width="20" height="20" rx="2" fill="#F4F1EA" stroke="#ffffff" stroke-width="1.3"/>
<rect x="170" y="60" width="20" height="20" rx="2" fill="#F4F1EA" stroke="#ffffff" stroke-width="1.3"/>
<rect x="190" y="60" width="20" height="20" rx="2" fill="#F4F1EA" stroke="#ffffff" stroke-width="1.3"/>
<rect x="90" y="80" width="20" height="20" rx="2" fill="#F4F1EA" stroke="#ffffff" stroke-width="1.3"/>
<rect x="110" y="80" width="20" height="20" rx="2" fill="#F4F1EA" stroke="#ffffff" stroke-width="1.3"/>
<rect x="130" y="80" width="20" height="20" rx="2" fill="#F4F1EA" stroke="#ffffff" stroke-width="1.3"/>
<rect x="150" y="80" width="20" height="20" rx="2" fill="#F4F1EA" stroke="#ffffff" stroke-width="1.3"/>
<rect x="170" y="80" width="20" height="20" rx="2" fill="#F4F1EA" stroke="#ffffff" stroke-width="1.3"/>
<rect x="190" y="80" width="20" height="20" rx="2" fill="#F4F1EA" stroke="#ffffff" stroke-width="1.3"/>
<rect x="90" y="100" width="20" height="20" rx="2" fill="#F4F1EA" stroke="#ffffff" stroke-width="1.3"/>
<rect x="110" y="100" width="20" height="20" rx="2" fill="#F4F1EA" stroke="#ffffff" stroke-width="1.3"/>
<rect x="130" y="100" width="20" height="20" rx="2" fill="#F4F1EA" stroke="#ffffff" stroke-width="1.3"/>
<rect x="150" y="100" width="20" height="20" rx="2" fill="#F4F1EA" stroke="#ffffff" stroke-width="1.3"/>
<rect x="170" y="100" width="20" height="20" rx="2" fill="#F4F1EA" stroke="#ffffff" stroke-width="1.3"/>
<rect x="190" y="100" width="20" height="20" rx="2" fill="#F4F1EA" stroke="#ffffff" stroke-width="1.3"/>
</g>
<g transform="translate(480,28)">
<rect x="0" y="0" width="20" height="20" rx="2" fill="#EB5757" stroke="#ffffff" stroke-width="1.3"/>
<rect x="0" y="20" width="20" height="20" rx="2" fill="#EB5757" stroke="#ffffff" stroke-width="1.3"/>
<rect x="0" y="40" width="20" height="20" rx="2" fill="#EB5757" stroke="#ffffff" stroke-width="1.3"/>
<rect x="0" y="60" width="20" height="20" rx="2" fill="#EB5757" stroke="#ffffff" stroke-width="1.3"/>
<rect x="0" y="80" width="20" height="20" rx="2" fill="#EB5757" stroke="#ffffff" stroke-width="1.3"/>
<rect x="0" y="100" width="20" height="20" rx="2" fill="#EB5757" stroke="#ffffff" stroke-width="1.3"/>
<text x="27.0" y="94.0" font-size="15" text-anchor="middle" fill="#9a9a9a">&#215;</text>
<rect x="44" y="80" width="20" height="20" rx="2" fill="#1C6188" stroke="#ffffff" stroke-width="1.3"/>
<text x="54.0" y="95.0" font-size="13" text-anchor="middle" fill="#fff">&#931;</text>
<line x1="86" y1="90.0" x2="68" y2="90.0" stroke="#9a9a9a" stroke-width="1.4" marker-end="url(#ar)"/>
<rect x="90" y="0" width="20" height="20" rx="2" fill="#2D9CDB" stroke="#ffffff" stroke-width="1.3"/>
<rect x="110" y="0" width="20" height="20" rx="2" fill="#F4F1EA" stroke="#ffffff" stroke-width="1.3"/>
<rect x="130" y="0" width="20" height="20" rx="2" fill="#F4F1EA" stroke="#ffffff" stroke-width="1.3"/>
<rect x="150" y="0" width="20" height="20" rx="2" fill="#F4F1EA" stroke="#ffffff" stroke-width="1.3"/>
<rect x="170" y="0" width="20" height="20" rx="2" fill="#F4F1EA" stroke="#ffffff" stroke-width="1.3"/>
<rect x="190" y="0" width="20" height="20" rx="2" fill="#F4F1EA" stroke="#ffffff" stroke-width="1.3"/>
<rect x="90" y="20" width="20" height="20" rx="2" fill="#A0D2EF" stroke="#ffffff" stroke-width="1.3"/>
<rect x="110" y="20" width="20" height="20" rx="2" fill="#2D9CDB" stroke="#ffffff" stroke-width="1.3"/>
<rect x="130" y="20" width="20" height="20" rx="2" fill="#F4F1EA" stroke="#ffffff" stroke-width="1.3"/>
<rect x="150" y="20" width="20" height="20" rx="2" fill="#F4F1EA" stroke="#ffffff" stroke-width="1.3"/>
<rect x="170" y="20" width="20" height="20" rx="2" fill="#F4F1EA" stroke="#ffffff" stroke-width="1.3"/>
<rect x="190" y="20" width="20" height="20" rx="2" fill="#F4F1EA" stroke="#ffffff" stroke-width="1.3"/>
<rect x="90" y="40" width="20" height="20" rx="2" fill="#A0D2EF" stroke="#ffffff" stroke-width="1.3"/>
<rect x="110" y="40" width="20" height="20" rx="2" fill="#A0D2EF" stroke="#ffffff" stroke-width="1.3"/>
<rect x="130" y="40" width="20" height="20" rx="2" fill="#2D9CDB" stroke="#ffffff" stroke-width="1.3"/>
<rect x="150" y="40" width="20" height="20" rx="2" fill="#F4F1EA" stroke="#ffffff" stroke-width="1.3"/>
<rect x="170" y="40" width="20" height="20" rx="2" fill="#F4F1EA" stroke="#ffffff" stroke-width="1.3"/>
<rect x="190" y="40" width="20" height="20" rx="2" fill="#F4F1EA" stroke="#ffffff" stroke-width="1.3"/>
<rect x="90" y="60" width="20" height="20" rx="2" fill="#A0D2EF" stroke="#ffffff" stroke-width="1.3"/>
<rect x="110" y="60" width="20" height="20" rx="2" fill="#A0D2EF" stroke="#ffffff" stroke-width="1.3"/>
<rect x="130" y="60" width="20" height="20" rx="2" fill="#A0D2EF" stroke="#ffffff" stroke-width="1.3"/>
<rect x="150" y="60" width="20" height="20" rx="2" fill="#2D9CDB" stroke="#ffffff" stroke-width="1.3"/>
<rect x="170" y="60" width="20" height="20" rx="2" fill="#F4F1EA" stroke="#ffffff" stroke-width="1.3"/>
<rect x="190" y="60" width="20" height="20" rx="2" fill="#F4F1EA" stroke="#ffffff" stroke-width="1.3"/>
<rect x="90" y="80" width="20" height="20" rx="2" fill="#A0D2EF" stroke="#ffffff" stroke-width="1.3"/>
<rect x="110" y="80" width="20" height="20" rx="2" fill="#A0D2EF" stroke="#ffffff" stroke-width="1.3"/>
<rect x="130" y="80" width="20" height="20" rx="2" fill="#A0D2EF" stroke="#ffffff" stroke-width="1.3"/>
<rect x="150" y="80" width="20" height="20" rx="2" fill="#A0D2EF" stroke="#ffffff" stroke-width="1.3"/>
<rect x="170" y="80" width="20" height="20" rx="2" fill="#2D9CDB" stroke="#ffffff" stroke-width="1.3"/>
<rect x="190" y="80" width="20" height="20" rx="2" fill="#F4F1EA" stroke="#ffffff" stroke-width="1.3"/>
<rect x="90" y="100" width="20" height="20" rx="2" fill="#F4F1EA" stroke="#ffffff" stroke-width="1.3"/>
<rect x="110" y="100" width="20" height="20" rx="2" fill="#F4F1EA" stroke="#ffffff" stroke-width="1.3"/>
<rect x="130" y="100" width="20" height="20" rx="2" fill="#F4F1EA" stroke="#ffffff" stroke-width="1.3"/>
<rect x="150" y="100" width="20" height="20" rx="2" fill="#F4F1EA" stroke="#ffffff" stroke-width="1.3"/>
<rect x="170" y="100" width="20" height="20" rx="2" fill="#F4F1EA" stroke="#ffffff" stroke-width="1.3"/>
<rect x="190" y="100" width="20" height="20" rx="2" fill="#F4F1EA" stroke="#ffffff" stroke-width="1.3"/>
</g>
</svg>